<?xml version="1.0" encoding="UTF-8"?>
<svg width="65px" height="71px" viewBox="0 0 65 71" version="1.1" xmlns="http://www.w3.org/2000/svg" xmlns:xlink="http://www.w3.org/1999/xlink">
    <!-- Generator: Sketch 46.2 (44496) - http://www.bohemiancoding.com/sketch -->
    <title>hero_marquee-belo</title>
    <desc>Created with Sketch.</desc>
    <defs></defs>
    <g id="Page-1" stroke="none" stroke-width="1" fill="none" fill-rule="evenodd">
        <g id="Launcher-2" transform="translate(-124.000000, -95.000000)" fill="#008489">
            <path d="M156.281529,150.325271 C151.968719,144.697042 148.938017,137.981625 148.938017,132.71875 C148.938017,128.051979 151.477293,124.583333 156.272727,124.583333 C161.07843,124.583333 163.641178,128.063812 163.641178,132.71875 C163.641178,137.978667 160.60314,144.697042 156.281529,150.325271 M156.272727,99.4375 C159.029112,99.4375 160.716095,100.690354 163.168822,104.982896 C167.251322,112.467479 180.651839,139.533271 182.104112,143.163146 C183.807231,147.137667 184.144628,148.603521 184.144628,150.46875 C184.144628,158.037646 179.695393,161.5625 173.142562,161.5625 C168.615579,161.5625 163.539959,158.327562 159.209545,153.758417 C164.43626,147.219021 168.042004,139.207854 168.042004,132.71875 C168.042004,125.852458 163.840682,120.145833 156.272727,120.145833 C148.70624,120.145833 144.53719,125.842104 144.53719,132.71875 C144.53719,139.209333 148.134132,147.219021 153.350579,153.756937 C149.012831,158.326083 143.93281,161.5625 139.402893,161.5625 C132.850062,161.5625 128.400826,158.037646 128.400826,150.46875 C128.400826,148.603521 128.738223,147.137667 130.420806,143.213437 C131.93469,139.429729 145.344008,112.319562 149.395702,104.950354 C151.79562,100.703667 153.50314,99.4375 156.272727,99.4375 M145.559649,102.775979 C141.415537,110.312333 127.932872,137.571896 126.36031,141.502042 C124.473822,145.904042 124,147.957125 124,150.46875 C124,160.754875 130.62031,166 139.402893,166 C145.113698,166 151.194174,162.331667 156.278595,157.090979 C161.357149,162.331667 167.431756,166 173.142562,166 C181.925145,166 188.545455,160.754875 188.545455,150.46875 C188.545455,147.957125 188.073099,145.904042 186.164607,141.45175 C184.653657,137.675437 171.184194,110.470604 167.001942,102.805562 C163.814277,97.2246667 160.821715,95 156.272727,95 C151.710537,95 148.684236,97.2438958 145.559649,102.775979" id="hero_marquee-belo"></path>
        </g>
    </g>
</svg>
