<?xml version="1.0" encoding="UTF-8"?>
<svg width="16px" height="23px" viewBox="0 0 16 23" version="1.1" xmlns="http://www.w3.org/2000/svg" xmlns:xlink="http://www.w3.org/1999/xlink">
    <!-- Generator: Sketch 47.1 (45422) - http://www.bohemiancoding.com/sketch -->
    <title>Alert</title>
    <desc>Created with Sketch.</desc>
    <defs>
        <path d="M14.3896129,22.0416587 L9.59790632,22.0416587 C9.33340412,22.0416587 9.11873566,22.2563271 9.11873566,22.5208293 C9.11873566,22.7853315 9.33340412,23 9.59790632,23 L14.3896129,23 C14.6541151,23 14.8687836,22.7853315 14.8687836,22.5208293 C14.8687836,22.2563271 14.6541151,22.0416587 14.3896129,22.0416587 M15.3479542,20.124976 L8.639565,20.124976 C8.3750628,20.124976 8.16039434,20.3396445 8.16039434,20.6041467 C8.16039434,20.8686489 8.3750628,21.0833174 8.639565,21.0833174 L15.3479542,21.0833174 C15.6124564,21.0833174 15.8271249,20.8686489 15.8271249,20.6041467 C15.8271249,20.3396445 15.6124564,20.124976 15.3479542,20.124976 M18.6955363,7.72039767 C18.6907446,7.88619072 18.6840362,8.14494287 18.6562443,8.39794498 C18.6131189,8.93844949 18.5067431,9.49716248 18.3428667,10.043417 C18.1320316,10.6797557 17.8828629,11.3592197 17.4794012,12.0166418 C16.6245607,13.4081534 15.9498884,14.7134143 15.4726344,15.8998408 L15.4275924,16.0129251 C15.4141756,16.0522171 15.1084647,16.9837249 15.1084647,17.9343995 C15.1084647,18.0043584 15.1132565,18.1078592 15.1439234,18.1116926 C14.9340466,18.2113601 13.9757053,18.2084851 12.5266932,18.2075267 L11.981397,18.2065684 L11.1485984,18.2075267 C9.9909221,18.2065684 9.179207,18.2094434 8.87445446,18.1567346 C8.8754128,18.1404428 8.8754128,18.121276 8.87637114,18.1021092 L8.87924617,17.9343995 C8.87924617,16.9837249 8.57257695,16.0522171 8.56011851,16.0129251 L8.51411812,15.8998408 C8.03782249,14.7134143 7.3631502,13.4081534 6.50830974,12.0166418 C6.10676473,11.3640114 5.85663765,10.6816723 5.64867758,10.0568338 C5.48096785,9.49428745 5.37459196,8.9365328 5.32954992,8.38165318 C5.30271636,8.14877624 5.29696632,7.89385745 5.29217461,7.72710606 C5.29025793,7.639897 5.2873829,7.57089642 5.28546622,7.57089642 L5.28546622,7.57472979 C5.44646756,3.8640322 8.39145044,0.95834132 11.9938555,0.95834132 C15.5981772,0.95834132 18.5450767,3.86786557 18.7051197,7.50956258 C18.7012864,7.54214618 18.6984113,7.61785515 18.6955363,7.72039767 M11.9938555,0 C7.87394612,0 4.50633473,3.31298594 4.32999992,7.6121051 L4.33479163,7.75298127 C4.33958334,7.93985783 4.34725007,8.22736023 4.37600031,8.47461229 C4.42391737,9.07932566 4.54371004,9.7041642 4.73441996,10.3443362 C4.96442188,11.0381753 5.23946584,11.7818482 5.69180294,12.5188127 C6.51789316,13.8643239 7.16860691,15.1216677 7.6506526,16.3148026 C7.65352762,16.3234277 7.92090485,17.1428095 7.92090485,17.9343995 L7.91802982,18.0771923 C7.91323812,18.3100693 7.90557139,18.601405 8.13365662,18.834282 C8.46045101,19.1706598 8.92620489,19.1697014 11.1495568,19.165868 L11.8386042,19.1649097 L12.5257349,19.165868 C12.7413617,19.165868 12.941655,19.1668264 13.1275732,19.1668264 C14.9819637,19.1668264 15.4755095,19.1371178 15.8109289,18.8016983 C16.0668061,18.5458212 16.0668061,18.2209435 16.0668061,17.9343995 C16.0668061,17.155268 16.3245999,16.3512196 16.3236415,16.3512196 L16.3226832,16.3512196 L16.3610168,16.2573021 C16.8181457,15.1216677 17.4698178,13.8643239 18.295908,12.5178543 C18.7511201,11.7770565 19.0252057,11.0353003 19.256166,10.3309194 C19.4430425,9.70703923 19.5628352,9.08220069 19.6097939,8.48994575 C19.6395025,8.2244852 19.6481276,7.93314944 19.6529193,7.74627289 L19.660586,7.54118784 C19.4794595,3.31298594 16.1128064,0 11.9938555,0 M11.514589,2.87483229 C9.21361145,2.87483229 7.31992901,4.75893132 7.20205302,7.16436804 C7.18959459,7.4279119 7.39372129,7.65312211 7.65822349,7.66653889 L7.68122368,7.66653889 C7.93518413,7.66653889 8.14697757,7.46720389 8.16039434,7.21036842 C8.25239511,5.31668597 9.72536572,3.83317361 11.514589,3.83317361 C11.7790912,3.83317361 11.9937596,3.61850515 11.9937596,3.35400295 C11.9937596,3.08950075 11.7790912,2.87483229 11.514589,2.87483229" id="path-1"></path>
    </defs>
    <g id="Panels" stroke="none" stroke-width="1" fill="none" fill-rule="evenodd">
        <g id="Base-Price---empty-Copy-13" transform="translate(-90.000000, -428.000000)">
            <g id="Default-alert-with-subtitle-+-icon-+-link" transform="translate(70.000000, 412.000000)">
                <g id="Parts/Icons/Light-bulb-outline/24px" transform="translate(16.000000, 16.000000)">
                    <mask id="mask-2" fill="white">
                        <use xlink:href="#path-1"></use>
                    </mask>
                    <use id="Mask" fill="#484848" fill-rule="evenodd" xlink:href="#path-1"></use>
                    <g id="Colors/Primitives/Babu" mask="url(#mask-2)" fill-rule="evenodd" fill="#008489">
                        <rect id="Babu" x="0" y="0" width="24" height="24"></rect>
                    </g>
                </g>
            </g>
        </g>
    </g>
</svg>