<?xml version="1.0" encoding="UTF-8"?>
<svg width="11px" height="18px" viewBox="0 0 11 18" version="1.1" xmlns="http://www.w3.org/2000/svg" xmlns:xlink="http://www.w3.org/1999/xlink">
    <!-- Generator: Sketch 47.1 (45422) - http://www.bohemiancoding.com/sketch -->
    <title>Input Copy</title>
    <desc>Created with Sketch.</desc>
    <defs></defs>
    <g id="Symbols" stroke="none" stroke-width="1" fill="none" fill-rule="evenodd">
        <g id="Nightly-Price" transform="translate(-15.000000, -75.000000)" fill="#484848">
            <g id="Group-4">
                <g id="Field" transform="translate(1.000000, 60.000000)">
                    <path d="M16.534,21.12 C16.534,22.051 17.066,22.754 18.529,23.115 L18.548,23.115 L18.548,18.935 C17.275,19.163 16.534,20.056 16.534,21.12 Z M22.272,27.485 C22.272,26.573 21.626,25.68 20.201,25.376 L20.201,29.594 C21.721,29.309 22.272,28.454 22.272,27.485 Z M20.201,32.976 L18.548,32.976 L18.548,31.266 C15.736,31.019 14.273,29.024 14.064,27.2 L15.907,26.592 C16.059,27.884 16.8,29.29 18.548,29.594 L18.548,25.034 L18.035,24.939 C15.926,24.502 14.634,23.229 14.634,21.196 C14.634,19.296 16.249,17.567 18.548,17.32 L18.548,15.629 L20.201,15.629 L20.201,17.339 C22.728,17.643 23.659,19.334 24.02,20.664 L22.291,21.329 C22.139,20.512 21.493,19.41 20.201,18.992 L20.201,23.495 L20.467,23.552 C22.671,24.008 24.134,25.509 24.134,27.371 C24.134,29.214 22.766,31.019 20.201,31.266 L20.201,32.976 Z" id="Input-Copy"></path>
                </g>
            </g>
        </g>
    </g>
</svg>